<?xml version="1.0" encoding="utf-8"?>
<!-- Generator: Adobe Illustrator 22.1.0, SVG Export Plug-In . SVG Version: 6.00 Build 0)  -->
<svg version="1.1" id="Layer_1" xmlns="http://www.w3.org/2000/svg" xmlns:xlink="http://www.w3.org/1999/xlink" x="0px" y="0px"
	 viewBox="0 0 700 700" style="enable-background:new 0 0 700 700;" xml:space="preserve">
<rect x="173.8" y="52.3" transform="matrix(0.7071 0.7071 -0.7071 0.7071 153.8023 -134.8963)" width="131.8" height="131.8"/>
<rect x="415.1" y="52.3" transform="matrix(0.7071 0.7071 -0.7071 0.7071 224.4653 -305.4919)" width="131.8" height="131.8"/>
<rect x="179.3" y="288.1" transform="matrix(0.7071 0.7071 -0.7071 0.7071 322.1268 -69.7164)" width="131.8" height="131.8"/>
<rect x="409.6" y="518.4" transform="matrix(0.7071 0.7071 -0.7071 0.7071 552.4191 -165.1066)" width="131.8" height="131.8"/>
<rect x="294.5" y="172.9" transform="matrix(0.7071 0.7071 -0.7071 0.7071 274.4316 -184.8626)" width="131.8" height="131.8"/>
<rect x="409.6" y="288.1" transform="matrix(0.7071 0.7071 -0.7071 0.7071 389.5778 -232.5577)" width="131.8" height="131.8"/>
<rect x="294.5" y="403.2" transform="matrix(0.7071 0.7071 -0.7071 0.7071 437.2729 -117.4115)" width="131.8" height="131.8"/>
<rect x="173.8" y="523.8" transform="matrix(0.7071 0.7071 -0.7071 0.7071 487.2393 3.2178)" width="131.8" height="131.8"/>
</svg>
