<svg xmlns="http://www.w3.org/2000/svg" xmlns:xlink="http://www.w3.org/1999/xlink" width="100" height="100" viewBox="0 0 100 100"><g><g transform="translate(50 50) scale(0.69 0.69) rotate(0) translate(-50 -50)" style="fill:#FFFFFF"><svg fill="#FFFFFF" xmlns:dc="http://purl.org/dc/elements/1.1/" xmlns:cc="http://creativecommons.org/ns#" xmlns:rdf="http://www.w3.org/1999/02/22-rdf-syntax-ns#" xmlns:svg="http://www.w3.org/2000/svg" xmlns="http://www.w3.org/2000/svg" xmlns:sodipodi="http://sodipodi.sourceforge.net/DTD/sodipodi-0.dtd" xmlns:inkscape="http://www.inkscape.org/namespaces/inkscape" viewBox="0 0 16.933333 16.933334" version="1.1" x="0px" y="0px"><g transform="translate(0,-280.06664)"><path class="home-icon" style="color:#000000;font-style:normal;font-variant:normal;font-weight:normal;font-stretch:normal;font-size:medium;line-height:normal;font-family:sans-serif;font-variant-ligatures:normal;font-variant-position:normal;font-variant-caps:normal;font-variant-numeric:normal;font-variant-alternates:normal;font-feature-settings:normal;text-indent:0;text-align:start;text-decoration:none;text-decoration-line:none;text-decoration-style:solid;text-decoration-color:#000000;letter-spacing:normal;word-spacing:normal;text-transform:none;writing-mode:lr-tb;direction:ltr;text-orientation:mixed;dominant-baseline:auto;baseline-shift:baseline;text-anchor:start;white-space:normal;shape-padding:0;clip-rule:nonzero;display:inline;overflow:visible;visibility:visible;opacity:1;isolation:auto;mix-blend-mode:normal;color-interpolation:sRGB;color-interpolation-filters:linearRGB;solid-color:#000000;solid-opacity:1;vector-effect:none;fill-opacity:1;fill-rule:nonzero;stroke:none;stroke-width:4;stroke-linecap:butt;stroke-linejoin:round;stroke-miterlimit:4;stroke-dasharray:none;stroke-dashoffset:0;stroke-opacity:1;color-rendering:auto;image-rendering:auto;shape-rendering:auto;text-rendering:auto;enable-background:accumulate" d="m 32.037109,2 c -0.359456,-0.00521 -0.713674,0.086546 -1.02539,0.265625 L 3.0039062,18.261719 C 2.3829109,18.618435 2.0000147,19.279937 2,19.996094 V 32 c 0.00277,1.532995 1.6581965,2.493162 2.9902344,1.734375 L 6.0019531,33.15625 V 60 c 1.105e-4,1.104524 0.8954763,1.99989 2,2 H 55.998047 C 57.103333,62.000969 57.99989,61.105287 58,60 V 33.15625 l 1.011719,0.578125 C 60.343314,34.490932 61.996378,33.531506 62,32 V 19.996094 c -0.0016,-0.717777 -0.387714,-1.379657 -1.011719,-1.734375 L 32.990234,2.265625 C 32.699784,2.0986595 32.372049,2.0073234 32.037109,2 Z M 32,6.3027344 58,21.162109 v 7.398438 L 32.990234,14.261719 c -0.61333,-0.349015 -1.365185,-0.349015 -1.978515,0 L 6.0019531,28.552734 V 21.162109 Z M 32,18.306641 53.998047,30.871094 V 57.998047 H 42.003906 V 40.001953 c -1.1e-4,-1.105287 -0.896667,-2.000969 -2.001953,-2 H 23.998047 c -1.104524,1.1e-4 -1.99989,0.895476 -2,2 V 57.998047 H 10.001953 V 30.871094 Z M 25.998047,42.001953 H 38.001953 V 57.998047 H 25.998047 Z" transform="matrix(0.26458334,0,0,0.26458334,0,280.06664)"></path></g></svg></g></g></svg>